<svg width="332" height="50" viewBox="0 0 332 50" fill="none" xmlns="http://www.w3.org/2000/svg">
<path d="M0.15 24.924C0.15 19.0973 1.77533 14.436 5.026 10.94C8.27667 7.41333 12.7233 5.65 18.366 5.65C20.1753 5.65 21.4633 6.018 22.23 6.754C23.0273 7.45933 23.426 8.56333 23.426 10.066C23.426 10.2807 23.3953 10.6947 23.334 11.308C24.4687 10.388 25.726 9.928 27.106 9.928C28.9767 9.928 30.5713 10.7713 31.89 12.458C33.2393 14.114 33.914 16.5213 33.914 19.68C33.914 22.8387 33.408 25.7367 32.396 28.374C31.384 31.0113 30.0347 33.1733 28.348 34.86C26.692 36.5467 24.7907 37.85 22.644 38.77C20.528 39.69 18.3353 40.15 16.066 40.15C11.1593 40.15 7.28 38.7547 4.428 35.964C1.576 33.1427 0.15 29.4627 0.15 24.924ZM23.104 27.086C21.1413 24.694 20.16 22.118 20.16 19.358C20.16 16.598 20.7733 14.3747 22 12.688C21.448 12.596 20.896 12.55 20.344 12.55C18.1667 12.55 16.2807 13.2093 14.686 14.528C11.6807 16.9813 10.178 20.3853 10.178 24.74C10.178 27.224 10.73 29.294 11.834 30.95C12.938 32.606 14.4713 33.434 16.434 33.434C17.9367 33.434 19.3013 32.8513 20.528 31.686C21.7853 30.49 22.644 28.9567 23.104 27.086ZM37.153 34.446C37.153 33.2193 37.4597 30.8427 38.073 27.316C38.717 23.7893 39.3764 20.5693 40.051 17.656L37.659 13.976C41.4924 12.2587 44.1757 11.4 45.709 11.4C47.273 11.4 48.055 12.3813 48.055 14.344C48.055 15.4173 47.549 17.656 46.537 21.06L46.997 21.29C49.205 14.6967 51.9497 11.4 55.231 11.4C56.7337 11.4 57.8837 11.86 58.681 12.78C59.4784 13.7 59.877 14.7273 59.877 15.862C59.877 17.5487 59.2484 18.99 57.991 20.186C56.7337 21.382 54.8477 21.98 52.333 21.98C48.5304 21.98 46.629 25.89 46.629 33.71C46.629 35.6113 46.951 37.0067 47.595 37.896C45.6937 39.3987 43.9457 40.15 42.351 40.15C38.8857 40.15 37.153 38.2487 37.153 34.446ZM69.9647 26.12C69.9647 27.684 70.394 28.9567 71.2527 29.938C72.142 30.8887 73.2307 31.364 74.5187 31.364C76.2667 31.364 77.8307 30.536 79.2107 28.88C79.732 26.1507 80.4067 21.842 81.2347 15.954C77.8 15.954 75.0554 16.9507 73.0007 18.944C70.9767 20.9373 69.9647 23.3293 69.9647 26.12ZM82.1547 43.554C80.7134 45.486 78.904 47.004 76.7267 48.108C74.5494 49.2427 72.2494 49.81 69.8267 49.81C67.4347 49.81 65.5027 49.35 64.0307 48.43C62.5894 47.5407 61.8687 46.3293 61.8687 44.796C61.8687 43.2627 62.4974 41.6527 63.7547 39.966C65.1654 42.0513 67.2814 43.094 70.1027 43.094C71.9427 43.094 73.6447 42.2967 75.2087 40.702C76.8034 39.138 77.8614 36.838 78.3827 33.802L77.9227 33.572C75.7454 36.7613 72.9547 38.356 69.5507 38.356C66.9747 38.356 64.9507 37.3593 63.4787 35.366C62.0067 33.3727 61.2707 30.72 61.2707 27.408C61.2707 24.2187 62.1447 21.3053 63.8927 18.668C65.886 15.632 68.6614 13.5313 72.2187 12.366C74.1814 11.722 76.052 11.4 77.8307 11.4C79.6094 11.4 81.112 11.5227 82.3387 11.768C82.5227 12.596 82.63 13.3473 82.6607 14.022C84.102 13.0407 85.5587 12.55 87.0307 12.55C89.1467 12.55 90.2047 13.6387 90.2047 15.816C90.2047 17.9933 90.0667 20.232 89.7907 22.532C89.5147 24.8013 89.0854 27.2393 88.5027 29.846C87.92 32.4527 87.0767 34.9213 85.9727 37.252C84.8994 39.552 83.6267 41.6527 82.1547 43.554ZM112.124 33.342L111.664 33.112C110.836 35.32 109.64 37.0527 108.076 38.31C106.543 39.5367 104.826 40.15 102.924 40.15C100.318 40.15 98.2324 39.1687 96.6684 37.206C95.1044 35.2433 94.3224 32.6213 94.3224 29.34C94.3224 24.2493 96.0244 19.9867 99.4284 16.552C102.863 13.1173 107.126 11.4 112.216 11.4C113.535 11.4 114.746 11.5227 115.85 11.768C116.034 12.6267 116.142 13.378 116.172 14.022C117.706 13.0407 119.285 12.55 120.91 12.55C123.149 12.55 124.268 13.7613 124.268 16.184C124.268 17.0427 123.778 19.634 122.796 23.958C121.846 28.282 121.37 31.4867 121.37 33.572C121.37 35.6573 121.846 37.0987 122.796 37.896C121.079 39.3987 119.285 40.15 117.414 40.15C115.574 40.15 114.225 39.598 113.366 38.494C112.538 37.39 112.124 35.6727 112.124 33.342ZM102.97 27.086C102.97 28.5887 103.277 29.754 103.89 30.582C104.534 31.3793 105.439 31.778 106.604 31.778C107.77 31.778 108.92 31.3487 110.054 30.49C111.189 29.6313 112.14 28.4507 112.906 26.948C113.182 23.8507 113.78 20.186 114.7 15.954C111.603 15.954 108.874 17.0733 106.512 19.312C104.151 21.5507 102.97 24.142 102.97 27.086ZM134.174 40.15C132.364 40.15 131.03 39.6747 130.172 38.724C129.313 37.7733 128.884 36.516 128.884 34.952C128.884 33.388 129.19 30.8427 129.804 27.316C130.448 23.7893 131.107 20.5693 131.782 17.656L129.39 13.976C132.426 12.2587 135.232 11.4 137.808 11.4C140.384 11.4 141.672 12.5653 141.672 14.896C141.672 16.4293 141.319 17.9933 140.614 19.588L141.074 19.818C144.355 14.206 148.526 11.4 153.586 11.4C157.296 11.4 159.152 13.2553 159.152 16.966C159.152 18.5607 158.692 21.2593 157.772 25.062C156.882 28.8647 156.438 31.732 156.438 33.664C156.438 35.596 156.76 37.0067 157.404 37.896C155.778 39.3987 154.061 40.15 152.252 40.15C148.725 40.15 146.962 38.2487 146.962 34.446C146.962 33.0353 147.422 30.6433 148.342 27.27C149.262 23.8967 149.722 21.704 149.722 20.692C149.722 19.312 149.2 18.622 148.158 18.622C147.299 18.622 146.318 19.0053 145.214 19.772C144.11 20.508 143.036 21.52 141.994 22.808C140.982 24.0653 140.123 25.6753 139.418 27.638C138.712 29.57 138.36 31.548 138.36 33.572C138.36 35.5653 138.682 37.0067 139.326 37.896C137.7 39.3987 135.983 40.15 134.174 40.15ZM178.601 4.132C178.601 5.29733 177.988 6.30933 176.761 7.168C175.534 7.996 174.139 8.41 172.575 8.41C171.011 8.41 169.769 8.10333 168.849 7.49C167.96 6.87666 167.515 6.04867 167.515 5.006C167.515 3.59533 168.174 2.49133 169.493 1.694C170.812 0.896666 172.207 0.497999 173.679 0.497999C175.151 0.497999 176.332 0.804666 177.221 1.418C178.141 2.03133 178.601 2.936 178.601 4.132ZM169.631 40.15C167.73 40.15 166.35 39.6747 165.491 38.724C164.632 37.7733 164.203 36.332 164.203 34.4C164.203 32.4373 165.184 27.2087 167.147 18.714L164.571 14.85C168.404 12.55 171.425 11.4 173.633 11.4C174.89 11.4 175.78 11.676 176.301 12.228C176.822 12.7493 177.083 13.608 177.083 14.804C177.083 15.264 176.516 17.9627 175.381 22.9C174.246 27.8373 173.679 31.364 173.679 33.48C173.679 35.596 174.154 37.068 175.105 37.896C173.388 39.3987 171.563 40.15 169.631 40.15ZM189.167 37.85C187.48 39.1687 185.87 39.828 184.337 39.828C182.804 39.828 181.654 39.3987 180.887 38.54C180.12 37.6813 179.737 36.608 179.737 35.32C179.737 34.0013 180.212 32.79 181.163 31.686C182.114 30.582 183.463 29.9227 185.211 29.708L192.755 21.704C188.952 21.5813 186.33 21.014 184.889 20.002C183.448 18.99 182.727 17.4413 182.727 15.356C182.727 14.528 182.896 13.1327 183.233 11.17C185.288 12.0287 187.664 12.8107 190.363 13.516C193.062 14.1907 195.178 14.5587 196.711 14.62C197.202 13.6693 197.922 12.9027 198.873 12.32C199.854 11.7067 201.004 11.4 202.323 11.4C203.672 11.4 204.761 11.7987 205.589 12.596C206.417 13.3933 206.831 14.436 206.831 15.724C206.831 17.9627 205.712 19.5727 203.473 20.554L193.951 31.456C195.944 32.0693 197.524 32.3913 198.689 32.422L204.945 29.984C205.589 31.64 205.911 33.2193 205.911 34.722C205.911 36.194 205.206 37.4667 203.795 38.54C202.384 39.6133 200.682 40.15 198.689 40.15C196.696 40.15 194.595 39.7667 192.387 39C191.62 38.7547 190.547 38.3713 189.167 37.85ZM222.978 40.15C218.777 40.15 215.526 39.0613 213.226 36.884C210.957 34.7067 209.822 31.7627 209.822 28.052C209.822 23.1147 211.509 19.1127 214.882 16.046C218.286 12.9487 222.549 11.4 227.67 11.4C230.522 11.4 232.684 12.044 234.156 13.332C235.628 14.5893 236.364 16.2607 236.364 18.346C236.364 21.198 234.969 23.5747 232.178 25.476C229.418 27.3467 225.14 28.2973 219.344 28.328C219.436 30.2907 219.881 31.8393 220.678 32.974C221.475 34.078 222.472 34.63 223.668 34.63C224.864 34.63 225.891 34.2313 226.75 33.434C227.639 32.6367 228.084 31.3333 228.084 29.524C232.561 29.524 234.8 30.582 234.8 32.698C234.8 34.5073 233.696 36.2093 231.488 37.804C229.28 39.368 226.443 40.15 222.978 40.15ZM226.888 16.782C225.324 16.782 223.883 17.564 222.564 19.128C221.276 20.692 220.341 22.532 219.758 24.648C222.825 24.4027 225.125 23.7127 226.658 22.578C228.222 21.4127 229.004 20.186 229.004 18.898C229.004 18.2847 228.805 17.7787 228.406 17.38C228.038 16.9813 227.532 16.782 226.888 16.782Z" fill="white"/>
<path d="M246.31 40.196C244.317 40.196 242.891 39.6287 242.032 38.494C241.174 37.3287 240.744 35.6113 240.744 33.342C240.744 31.042 241.71 24.556 243.642 13.884L241.204 8.962C244.67 6.72333 247.828 5.604 250.68 5.604C252.49 5.604 253.609 6.46267 254.038 8.18C257.166 8.088 261.337 7.306 266.55 5.834C266.796 7.214 266.918 8.37933 266.918 9.33C266.918 11.2927 266.167 12.8413 264.664 13.976C263.192 15.08 261.475 15.632 259.512 15.632C257.55 15.632 255.587 15.1567 253.624 14.206C253.624 14.206 253.486 14.9573 253.21 16.46C252.996 17.656 252.643 19.4807 252.152 21.934C253.195 22.1793 254.176 22.302 255.096 22.302C256.354 22.0567 257.734 21.704 259.236 21.244C259.39 21.7653 259.466 22.624 259.466 23.82C259.466 24.9853 258.991 25.9207 258.04 26.626C257.09 27.3313 256.016 27.684 254.82 27.684C253.624 27.684 252.413 27.546 251.186 27.27C250.849 29.202 250.68 30.5973 250.68 31.456C250.68 34.4307 251.14 36.654 252.06 38.126C250.22 39.506 248.304 40.196 246.31 40.196ZM271.926 10.388L269.35 6.708C273.184 4.46933 276.204 3.35 278.412 3.35C279.67 3.35 280.559 3.61067 281.08 4.132C281.602 4.62267 281.862 5.57333 281.862 6.984C281.862 8.364 281.172 12.2893 279.792 18.76C278.443 25.2307 277.768 29.7693 277.768 32.376C277.768 34.9827 278.244 36.8227 279.194 37.896C277.048 39.3987 275.1 40.15 273.352 40.15C271.604 40.15 270.316 39.5827 269.488 38.448C268.691 37.2827 268.292 35.688 268.292 33.664C268.292 31.64 268.86 27.5 269.994 21.244C271.129 14.988 271.773 11.3693 271.926 10.388ZM300.159 4.132C300.159 5.29733 299.546 6.30933 298.319 7.168C297.093 7.996 295.697 8.41 294.133 8.41C292.569 8.41 291.327 8.10333 290.407 7.49C289.518 6.87666 289.073 6.04867 289.073 5.006C289.073 3.59533 289.733 2.49133 291.051 1.694C292.37 0.896666 293.765 0.497999 295.237 0.497999C296.709 0.497999 297.89 0.804666 298.779 1.418C299.699 2.03133 300.159 2.936 300.159 4.132ZM291.189 40.15C289.288 40.15 287.908 39.6747 287.049 38.724C286.191 37.7733 285.761 36.332 285.761 34.4C285.761 32.4373 286.743 27.2087 288.705 18.714L286.129 14.85C289.963 12.55 292.983 11.4 295.191 11.4C296.449 11.4 297.338 11.676 297.859 12.228C298.381 12.7493 298.641 13.608 298.641 14.804C298.641 15.264 298.074 17.9627 296.939 22.9C295.805 27.8373 295.237 31.364 295.237 33.48C295.237 35.596 295.713 37.068 296.663 37.896C294.946 39.3987 293.121 40.15 291.189 40.15ZM316.107 34.906L313.899 30.858C311.875 32.7287 310.863 34.4613 310.863 36.056C310.863 36.8227 310.986 37.528 311.231 38.172C309.054 39.4907 306.999 40.15 305.067 40.15C303.779 40.15 302.752 39.7513 301.985 38.954C301.219 38.126 300.835 37.0527 300.835 35.734C300.835 33.7713 301.694 31.9467 303.411 30.26C305.159 28.5427 307.199 27.1167 309.529 25.982L310.863 25.338L308.103 20.278C306.907 18.07 305.129 16.5673 302.767 15.77C304.669 12.8567 307.153 11.4 310.219 11.4C311.599 11.4 312.765 11.7833 313.715 12.55C314.666 13.286 315.693 14.666 316.797 16.69L318.821 20.416C320.661 18.668 321.581 17.0273 321.581 15.494C321.581 14.7273 321.459 14.022 321.213 13.378C323.391 12.0593 325.445 11.4 327.377 11.4C328.665 11.4 329.693 11.814 330.459 12.642C331.226 13.4393 331.609 14.4973 331.609 15.816C331.609 17.7787 330.735 19.6187 328.987 21.336C327.27 23.0227 325.246 24.4333 322.915 25.568L321.903 26.074L324.801 31.318C325.997 33.5873 327.776 35.09 330.137 35.826C328.205 38.7087 325.706 40.15 322.639 40.15C321.229 40.15 320.063 39.782 319.143 39.046C318.223 38.31 317.211 36.93 316.107 34.906Z" fill="#1D4ED8"/>
</svg>
